<svg xmlns="http://www.w3.org/2000/svg" viewBox="0 0 100 107" preserveAspectRatio="xMidYMid meet">
  <!-- Maine outline from Natural Earth GeoJSON (public domain) -->
  <path id="maine-land" fill="#2d4a3a" d="
    M 9.2,107
    L 6.3,105.3
    L 6.7,102.9
    L 2.8,100
    L 1.2,68.2
    L 0,52.5
    L 10.5,49.2
    L 8.8,47.5
    L 12.8,43.7
    L 17,41.9
    L 16.2,40.5
    L 20,38.2
    L 18.8,34
    L 21.2,27.5
    L 25,25.4
    L 26.4,18.6
    L 45.3,0
    L 49.7,0.8
    L 50,5.3
    L 53.2,6.9
    L 61,4.3
    L 66,4.3
    L 69.5,2.5
    L 76.3,6.4
    L 80.3,9.6
    L 80.5,36.9
    L 80,43.5
    L 88.4,45.2
    L 87.2,48
    L 89.4,50.7
    L 87.6,53.1
    L 91.7,56.5
    L 95.6,56.3
    L 100,64.6
    L 94.9,68.4
    L 92,67
    L 89.6,69.6
    L 86.1,69
    L 85.7,71.2
    L 81.2,71
    L 74,76.1
    L 72.2,72.5
    L 69.7,72.3
    L 70.9,76.1
    L 65.3,77
    L 64,74
    L 61.3,75.5
    L 55,75.5
    L 54.9,72
    L 51.1,72.8
    L 51.8,75.3
    L 48.3,80.6
    L 49,82.1
    L 44.5,85
    L 39.9,84
    L 37.2,87
    L 33.5,87.4
    L 30.4,90
    L 26.7,89.4
    L 25.6,86.8
    L 20.2,91
    L 21.6,93.7
    L 17.6,94.6
    L 17.4,96.9
    L 12.8,99.4
    Z"/>
</svg>
